<svg width="96" height="96" xmlns="http://www.w3.org/2000/svg" xmlns:xlink="http://www.w3.org/1999/xlink" overflow="hidden"><defs><clipPath id="clip0"><rect x="592" y="312" width="96" height="96"/></clipPath></defs><g clip-path="url(#clip0)" transform="translate(-592 -312)"><path d="M642.3 374.2 609.5 374.2C607.6 374.2 606 375.8 606 377.7 606 379.6 607.6 381.2 609.5 381.2L625.7 381.2 630.7 385.9 635.8 381.2 642.3 381.2C644.2 381.2 645.8 379.6 645.8 377.7 645.8 375.8 644.2 374.2 642.3 374.2Z"/><path d="M630.5 391.3 623.6 384.9 605.8 384.9 605.8 389.6C605.8 392.2 607.9 394.3 610.5 394.3L641 394.3C643.6 394.3 645.7 392.2 645.7 389.6L645.7 384.9 637.5 384.9 630.5 391.3Z"/><path d="M625.7 355C614.7 355 605.8 359.2 605.8 370.2L645.6 370.2C645.6 359.3 636.7 355 625.7 355Z"/><path d="M673.6 329.2C674.4 328.4 674.4 327.2 673.6 326.4 672.8 325.6 671.6 325.6 670.8 326.4L660.8 336.7 660.4 340.4 632.8 340.4 632.8 343.4 633.5 351.9C643.8 354 649.7 360.6 649.7 370.4L649.7 389.7C649.7 391.4 649.2 393 648.3 394.4L664.9 394.4 668.9 343.4 668.9 340.4 664.7 340.4 664.9 338.4 673.6 329.2Z"/></g></svg>